<svg width="69" height="71" viewBox="0 0 69 71" fill="none" xmlns="http://www.w3.org/2000/svg">
<g filter="url(#filter0_d_131_10039)">
<path d="M30.028 7.33518C23.535 8.314 17.5425 11.3961 12.9698 16.1086" stroke="#144E5E" stroke-width="6" stroke-linecap="round"/>
</g>
<circle opacity="0.1" cx="34.5" cy="37" r="30" stroke="#144E5E" stroke-width="6" stroke-linecap="round"/>
<path d="M25.8671 46.6606C24.8815 46.6606 23.9919 46.4494 23.1983 46.027C22.4047 45.6046 21.8031 45.0286 21.3935 44.299L22.8719 42.763C23.2303 43.2622 23.6783 43.659 24.2159 43.9534C24.7535 44.2478 25.3103 44.395 25.8863 44.395C26.3471 44.395 26.7503 44.299 27.0959 44.107C27.4543 43.915 27.7359 43.6462 27.9407 43.3006C28.1455 42.955 28.2479 42.5582 28.2479 42.1102C28.2479 41.6622 28.1519 41.2718 27.9599 40.939C27.7679 40.6062 27.5055 40.3502 27.1727 40.171C26.8399 39.979 26.4623 39.883 26.0399 39.883C25.6175 39.883 25.2207 39.979 24.8495 40.171C24.4911 40.3502 24.2031 40.6126 23.9855 40.9582H21.7391L23.3135 32.8366H30.0335V35.179H25.1759L24.6191 38.2318C24.7855 38.0782 25.0159 37.9502 25.3103 37.8478C25.6047 37.7326 25.9695 37.675 26.4047 37.675C27.2623 37.675 28.0303 37.8606 28.7087 38.2318C29.3871 38.603 29.9183 39.1214 30.3023 39.787C30.6863 40.4398 30.8783 41.195 30.8783 42.0526C30.8783 42.9614 30.6607 43.7614 30.2255 44.4526C29.7903 45.1566 29.1951 45.7006 28.4399 46.0846C27.6847 46.4686 26.8271 46.6606 25.8671 46.6606ZM35.308 35.7934C34.7192 35.7934 34.188 35.6654 33.7144 35.4094C33.2408 35.1406 32.8568 34.7886 32.5624 34.3534C32.2808 33.9054 32.14 33.4126 32.14 32.875C32.14 32.3374 32.2808 31.851 32.5624 31.4158C32.8568 30.9678 33.2408 30.6158 33.7144 30.3598C34.188 30.1038 34.7192 29.9758 35.308 29.9758C35.8968 29.9758 36.428 30.1038 36.9016 30.3598C37.388 30.6158 37.772 30.9678 38.0536 31.4158C38.3352 31.851 38.476 32.3374 38.476 32.875C38.476 33.4126 38.3352 33.9054 38.0536 34.3534C37.772 34.7886 37.388 35.1406 36.9016 35.4094C36.428 35.6654 35.8968 35.7934 35.308 35.7934ZM35.308 34.507C35.564 34.507 35.7944 34.4302 35.9992 34.2766C36.204 34.123 36.364 33.9246 36.4792 33.6814C36.6072 33.4382 36.6712 33.1758 36.6712 32.8942C36.6712 32.587 36.6072 32.3118 36.4792 32.0686C36.3512 31.8254 36.1848 31.6334 35.98 31.4926C35.7752 31.339 35.5512 31.2622 35.308 31.2622C35.052 31.2622 34.8216 31.339 34.6168 31.4926C34.412 31.6334 34.2456 31.8254 34.1176 32.0686C34.0024 32.3118 33.9448 32.5806 33.9448 32.875C33.9448 33.1694 34.0088 33.4446 34.1368 33.7006C34.2648 33.9438 34.4312 34.1422 34.636 34.2958C34.8408 34.4366 35.0648 34.507 35.308 34.507ZM42.7192 43.9918C42.1304 43.9918 41.5992 43.8638 41.1256 43.6078C40.652 43.3518 40.268 43.0062 39.9736 42.571C39.692 42.123 39.5512 41.6302 39.5512 41.0926C39.5512 40.5422 39.692 40.0494 39.9736 39.6142C40.268 39.179 40.652 38.8334 41.1256 38.5774C41.5992 38.3086 42.1304 38.1742 42.7192 38.1742C43.308 38.1742 43.8392 38.3086 44.3128 38.5774C44.7992 38.8334 45.1832 39.179 45.4648 39.6142C45.7464 40.0494 45.8872 40.5358 45.8872 41.0734C45.8872 41.611 45.7464 42.1038 45.4648 42.5518C45.1832 42.987 44.7992 43.339 44.3128 43.6078C43.8392 43.8638 43.308 43.9918 42.7192 43.9918ZM42.7192 42.7054C42.9752 42.7054 43.2056 42.6286 43.4104 42.475C43.6152 42.3214 43.7752 42.123 43.8904 41.8798C44.0184 41.6366 44.0824 41.3742 44.0824 41.0926C44.0824 40.7854 44.0184 40.5102 43.8904 40.267C43.7752 40.0238 43.6088 39.8318 43.3912 39.691C43.1864 39.5374 42.9624 39.4606 42.7192 39.4606C42.476 39.4606 42.2456 39.5374 42.028 39.691C41.8232 39.8318 41.6568 40.0302 41.5288 40.2862C41.4136 40.5294 41.356 40.7918 41.356 41.0734C41.356 41.3806 41.42 41.6558 41.548 41.899C41.676 42.1422 41.8424 42.3406 42.0472 42.4942C42.252 42.635 42.476 42.7054 42.7192 42.7054ZM33.2344 42.8974L38.6296 36.5806L43.6216 30.0142L44.7928 31.051L39.532 37.2718L34.3864 43.9342L33.2344 42.8974Z" fill="#144E5E"/>
<defs>
<filter id="filter0_d_131_10039" x="3.96875" y="0.334961" width="35.0586" height="26.7734" filterUnits="userSpaceOnUse" color-interpolation-filters="sRGB">
<feFlood flood-opacity="0" result="BackgroundImageFix"/>
<feColorMatrix in="SourceAlpha" type="matrix" values="0 0 0 0 0 0 0 0 0 0 0 0 0 0 0 0 0 0 127 0" result="hardAlpha"/>
<feOffset dy="2"/>
<feGaussianBlur stdDeviation="3"/>
<feColorMatrix type="matrix" values="0 0 0 0 0.505882 0 0 0 0 0.831373 0 0 0 0 0.996078 0 0 0 0.2 0"/>
<feBlend mode="normal" in2="BackgroundImageFix" result="effect1_dropShadow_131_10039"/>
<feBlend mode="normal" in="SourceGraphic" in2="effect1_dropShadow_131_10039" result="shape"/>
</filter>
</defs>
</svg>
