<svg width="79" height="78" viewBox="0 0 79 78" fill="none" xmlns="http://www.w3.org/2000/svg">
<g filter="url(#filter0_d_389_6805)">
<path d="M69.5 37C69.5 30.7535 67.5502 24.6627 63.9225 19.5775C60.2948 14.4923 55.1703 10.6664 49.2639 8.63335C43.3574 6.60034 36.9637 6.46172 30.9747 8.23684C24.9857 10.012 19.7002 13.6123 15.8555 18.5355C12.0109 23.4587 9.79891 29.4592 9.52819 35.6998C9.25747 41.9405 10.9415 48.11 14.3454 53.3476C17.7492 58.5853 22.7031 62.6298 28.5159 64.9168C34.3287 67.2039 40.7104 67.6195 46.7707 66.1056" stroke="#144E5E" stroke-width="6" stroke-linecap="round"/>
</g>
<circle opacity="0.1" cx="39.5" cy="36.9998" r="30" stroke="#144E5E" stroke-width="6" stroke-linecap="round"/>
<path d="M30.7856 39.7678C30.7856 40.6126 30.5552 41.3486 30.0944 41.9758C29.6464 42.603 29.0448 43.0958 28.2896 43.4542C27.5344 43.7998 26.7088 43.9726 25.8128 43.9726C24.904 43.9726 24.072 43.787 23.3168 43.4158C22.5744 43.0446 21.9792 42.539 21.5312 41.899C21.096 41.2462 20.8784 40.5038 20.8784 39.6718C20.8784 39.1598 20.9872 38.699 21.2048 38.2894C21.4224 37.867 21.6912 37.5086 22.0112 37.2142C22.344 36.907 22.6768 36.6702 23.0096 36.5038C22.7024 36.3502 22.4144 36.1454 22.1456 35.8894C21.8896 35.6334 21.6848 35.339 21.5312 35.0062C21.3776 34.6734 21.3008 34.3214 21.3008 33.9502C21.3008 33.3486 21.4352 32.811 21.704 32.3374C21.9728 31.8638 22.3312 31.467 22.7792 31.147C23.2272 30.8142 23.7136 30.571 24.2384 30.4174C24.776 30.251 25.3072 30.1678 25.832 30.1678C26.344 30.1678 26.8688 30.251 27.4064 30.4174C27.944 30.571 28.4368 30.8078 28.8848 31.1278C29.3328 31.4478 29.6912 31.8446 29.96 32.3182C30.2416 32.779 30.3824 33.3166 30.3824 33.931C30.3824 34.2894 30.2992 34.6414 30.1328 34.987C29.9792 35.3198 29.768 35.6206 29.4992 35.8894C29.2432 36.1454 28.9488 36.3502 28.616 36.5038C28.9872 36.6958 29.3392 36.9454 29.672 37.2526C30.0048 37.5598 30.2736 37.9246 30.4784 38.347C30.6832 38.7694 30.7856 39.243 30.7856 39.7678ZM28.1744 39.6142C28.1744 39.2814 28.1104 38.9934 27.9824 38.7502C27.8544 38.4942 27.6752 38.283 27.4448 38.1166C27.2144 37.9374 26.9584 37.803 26.6768 37.7134C26.3952 37.6238 26.1072 37.579 25.8128 37.579C25.4032 37.579 25.0192 37.6622 24.6608 37.8286C24.3152 37.995 24.0336 38.2318 23.816 38.539C23.5984 38.8462 23.4896 39.2046 23.4896 39.6142C23.4896 39.9214 23.5536 40.203 23.6816 40.459C23.8224 40.7022 24.0016 40.9134 24.2192 41.0926C24.4496 41.2718 24.6992 41.4126 24.968 41.515C25.2496 41.6046 25.5376 41.6494 25.832 41.6494C26.2416 41.6494 26.6256 41.5598 26.984 41.3806C27.3424 41.2014 27.6304 40.9582 27.848 40.651C28.0656 40.3438 28.1744 39.9982 28.1744 39.6142ZM23.912 34.027C23.912 34.3726 24.008 34.667 24.2 34.9102C24.392 35.1534 24.6352 35.339 24.9296 35.467C25.2368 35.5822 25.5376 35.6398 25.832 35.6398C26.1392 35.6398 26.4336 35.5758 26.7152 35.4478C27.0096 35.3198 27.2528 35.1406 27.4448 34.9102C27.6496 34.667 27.752 34.3662 27.752 34.0078C27.752 33.6878 27.6624 33.4126 27.4832 33.1822C27.304 32.9518 27.0672 32.7726 26.7728 32.6446C26.4912 32.5166 26.1712 32.4526 25.8128 32.4526C25.48 32.4526 25.1664 32.5166 24.872 32.6446C24.5776 32.7726 24.3408 32.9582 24.1616 33.2014C23.9952 33.4318 23.912 33.707 23.912 34.027ZM36.6702 46.6606C35.6846 46.6606 34.795 46.4494 34.0014 46.027C33.2078 45.6046 32.6062 45.0286 32.1966 44.299L33.675 42.763C34.0334 43.2622 34.4814 43.659 35.019 43.9534C35.5566 44.2478 36.1134 44.395 36.6894 44.395C37.1502 44.395 37.5534 44.299 37.899 44.107C38.2574 43.915 38.539 43.6462 38.7438 43.3006C38.9486 42.955 39.051 42.5582 39.051 42.1102C39.051 41.6622 38.955 41.2718 38.763 40.939C38.571 40.6062 38.3086 40.3502 37.9758 40.171C37.643 39.979 37.2654 39.883 36.843 39.883C36.4206 39.883 36.0238 39.979 35.6526 40.171C35.2942 40.3502 35.0062 40.6126 34.7886 40.9582H32.5422L34.1166 32.8366H40.8366V35.179H35.979L35.4222 38.2318C35.5886 38.0782 35.819 37.9502 36.1134 37.8478C36.4078 37.7326 36.7726 37.675 37.2078 37.675C38.0654 37.675 38.8334 37.8606 39.5118 38.2318C40.1902 38.603 40.7214 39.1214 41.1054 39.787C41.4894 40.4398 41.6814 41.195 41.6814 42.0526C41.6814 42.9614 41.4638 43.7614 41.0286 44.4526C40.5934 45.1566 39.9982 45.7006 39.243 46.0846C38.4878 46.4686 37.6302 46.6606 36.6702 46.6606ZM46.1111 35.7934C45.5223 35.7934 44.9911 35.6654 44.5175 35.4094C44.0439 35.1406 43.6599 34.7886 43.3655 34.3534C43.0839 33.9054 42.9431 33.4126 42.9431 32.875C42.9431 32.3374 43.0839 31.851 43.3655 31.4158C43.6599 30.9678 44.0439 30.6158 44.5175 30.3598C44.9911 30.1038 45.5223 29.9758 46.1111 29.9758C46.6999 29.9758 47.2311 30.1038 47.7047 30.3598C48.1911 30.6158 48.5751 30.9678 48.8567 31.4158C49.1383 31.851 49.2791 32.3374 49.2791 32.875C49.2791 33.4126 49.1383 33.9054 48.8567 34.3534C48.5751 34.7886 48.1911 35.1406 47.7047 35.4094C47.2311 35.6654 46.6999 35.7934 46.1111 35.7934ZM46.1111 34.507C46.3671 34.507 46.5975 34.4302 46.8023 34.2766C47.0071 34.123 47.1671 33.9246 47.2823 33.6814C47.4103 33.4382 47.4743 33.1758 47.4743 32.8942C47.4743 32.587 47.4103 32.3118 47.2823 32.0686C47.1543 31.8254 46.9879 31.6334 46.7831 31.4926C46.5783 31.339 46.3543 31.2622 46.1111 31.2622C45.8551 31.2622 45.6247 31.339 45.4199 31.4926C45.2151 31.6334 45.0487 31.8254 44.9207 32.0686C44.8055 32.3118 44.7479 32.5806 44.7479 32.875C44.7479 33.1694 44.8119 33.4446 44.9399 33.7006C45.0679 33.9438 45.2343 34.1422 45.4391 34.2958C45.6439 34.4366 45.8679 34.507 46.1111 34.507ZM53.5223 43.9918C52.9335 43.9918 52.4023 43.8638 51.9287 43.6078C51.4551 43.3518 51.0711 43.0062 50.7767 42.571C50.4951 42.123 50.3543 41.6302 50.3543 41.0926C50.3543 40.5422 50.4951 40.0494 50.7767 39.6142C51.0711 39.179 51.4551 38.8334 51.9287 38.5774C52.4023 38.3086 52.9335 38.1742 53.5223 38.1742C54.1111 38.1742 54.6423 38.3086 55.1159 38.5774C55.6023 38.8334 55.9863 39.179 56.2679 39.6142C56.5495 40.0494 56.6903 40.5358 56.6903 41.0734C56.6903 41.611 56.5495 42.1038 56.2679 42.5518C55.9863 42.987 55.6023 43.339 55.1159 43.6078C54.6423 43.8638 54.1111 43.9918 53.5223 43.9918ZM53.5223 42.7054C53.7783 42.7054 54.0087 42.6286 54.2135 42.475C54.4183 42.3214 54.5783 42.123 54.6935 41.8798C54.8215 41.6366 54.8855 41.3742 54.8855 41.0926C54.8855 40.7854 54.8215 40.5102 54.6935 40.267C54.5783 40.0238 54.4119 39.8318 54.1943 39.691C53.9895 39.5374 53.7655 39.4606 53.5223 39.4606C53.2791 39.4606 53.0487 39.5374 52.8311 39.691C52.6263 39.8318 52.4599 40.0302 52.3319 40.2862C52.2167 40.5294 52.1591 40.7918 52.1591 41.0734C52.1591 41.3806 52.2231 41.6558 52.3511 41.899C52.4791 42.1422 52.6455 42.3406 52.8503 42.4942C53.0551 42.635 53.2791 42.7054 53.5223 42.7054ZM44.0375 42.8974L49.4327 36.5806L54.4247 30.0142L55.5959 31.051L50.3351 37.2718L45.1895 43.9342L44.0375 42.8974Z" fill="#144E5E"/>
<defs>
<filter id="filter0_d_389_6805" x="0.5" y="2.38419e-07" width="78" height="78" filterUnits="userSpaceOnUse" color-interpolation-filters="sRGB">
<feFlood flood-opacity="0" result="BackgroundImageFix"/>
<feColorMatrix in="SourceAlpha" type="matrix" values="0 0 0 0 0 0 0 0 0 0 0 0 0 0 0 0 0 0 127 0" result="hardAlpha"/>
<feOffset dy="2"/>
<feGaussianBlur stdDeviation="3"/>
<feColorMatrix type="matrix" values="0 0 0 0 0.505882 0 0 0 0 0.831373 0 0 0 0 0.996078 0 0 0 0.2 0"/>
<feBlend mode="normal" in2="BackgroundImageFix" result="effect1_dropShadow_389_6805"/>
<feBlend mode="normal" in="SourceGraphic" in2="effect1_dropShadow_389_6805" result="shape"/>
</filter>
</defs>
</svg>
