<svg width="36" height="27" viewBox="0 0 36 27" fill="none" xmlns="http://www.w3.org/2000/svg">
<g clip-path="url(#clip0_252_4898)">
<path d="M35.2049 4.77414C34.9984 4.0095 34.5956 3.31241 34.0367 2.75227C33.4777 2.19214 32.782 1.7885 32.0189 1.58156C29.2253 0.818115 17.9817 0.818115 17.9817 0.818115C17.9817 0.818115 6.73765 0.841224 3.944 1.60467C3.18089 1.81162 2.48521 2.21528 1.92623 2.77544C1.36725 3.3356 0.964464 4.03273 0.757996 4.79739C-0.0870198 9.7712 -0.414817 17.3501 0.781199 22.125C0.987689 22.8896 1.39048 23.5867 1.94946 24.1468C2.50844 24.707 3.20411 25.1106 3.9672 25.3176C6.76085 26.081 18.0047 26.081 18.0047 26.081C18.0047 26.081 29.2483 26.081 32.0419 25.3176C32.805 25.1106 33.5007 24.707 34.0597 24.1469C34.6187 23.5867 35.0215 22.8896 35.228 22.125C36.1193 17.1441 36.3939 9.56998 35.2049 4.77428V4.77414Z" fill="#FF0000"/>
<path d="M14.4033 18.863L23.7307 13.4496L14.4033 8.03613V18.863Z" fill="#1D1D1D"/>
</g>
<defs>
<clipPath id="clip0_252_4898">
<rect width="36" height="25.3636" fill="white" transform="translate(0 0.818115)"/>
</clipPath>
</defs>
</svg>
