<svg width="16" height="16" viewBox="0 0 16 16" fill="none" xmlns="http://www.w3.org/2000/svg">
<rect width="16" height="16" rx="2" fill="white"/>
<path d="M11.2268 1.34509L15.5318 3.8516C15.6747 3.93484 15.8578 3.8918 15.9487 3.75359C15.9822 3.70276 16 3.64325 16 3.58241V3.52438C16 3.34957 15.9097 3.18718 15.7611 3.09501L11.2517 0.296846C10.9472 0.107907 10.5768 0.057185 10.2328 0.157312L0.296799 3.04876C0.12094 3.09994 0 3.26109 0 3.44425V3.45364C0 3.52796 0.0217648 3.60066 0.0626074 3.66275C0.152618 3.79959 0.320098 3.86347 0.478377 3.82134L10.2663 1.21604C10.5909 1.12965 10.9365 1.17608 11.2268 1.34509Z" fill="#F2C231"/>
<path fill-rule="evenodd" clip-rule="evenodd" d="M4.04355 5.03952C4.01959 5.06222 4 6.86264 4 9.04044V13L6.62783 12.9978C9.41235 12.9955 9.86185 12.961 10.6102 12.692C11.0802 12.5229 11.6723 12.0209 11.8539 11.6373C12.0476 11.2281 12.0489 10.4078 11.8565 10.0116C11.6622 9.61162 11.2444 9.19955 10.8551 9.02395C10.6757 8.943 10.5288 8.86081 10.5288 8.84127C10.5288 8.82179 10.6595 8.71832 10.8192 8.61138C11.3883 8.23015 11.7067 7.48505 11.5796 6.83162C11.3767 5.78884 10.5023 5.20464 8.92922 5.06098C8.19264 4.99368 4.1106 4.97575 4.04355 5.03952ZM8.74497 6.75564C9.38342 7.06938 9.3829 7.75847 8.74393 8.08283C8.57477 8.16874 8.34287 8.18809 7.46024 8.19014L6.383 8.19268L6.36439 7.48312C6.35421 7.09289 6.36217 6.73312 6.38222 6.68362C6.43627 6.5497 8.45072 6.61111 8.74497 6.75564ZM9.1162 9.85998C9.44336 9.98987 9.61474 10.2358 9.61474 10.5754C9.61474 10.9307 9.48573 11.1162 9.13272 11.2685C8.90043 11.3687 8.6934 11.3847 7.60714 11.3859L6.35036 11.3872V10.5808V9.77444H7.62555C8.56158 9.77444 8.95807 9.79721 9.1162 9.85998Z" fill="#1C4857"/>
</svg>
