<svg width="93" height="88" viewBox="0 0 93 88" fill="none" xmlns="http://www.w3.org/2000/svg">
<path fill-rule="evenodd" clip-rule="evenodd" d="M61.9931 13.9298C78.5711 13.9298 92 27.3726 92 43.9367C92 60.5009 78.5711 73.9298 61.9931 73.9298C45.4289 73.9298 32 60.5009 32 43.9367C32.0069 27.3726 45.4289 13.9298 61.9931 13.9298Z" fill="#144E5E"/>
<g clip-path="url(#clip0_470_1273)">
<path d="M29.995 74.3139C25.4274 74.3139 20.8296 74.1324 16.252 73.7997C16.252 75.1306 16.252 75.9573 16.252 77.9234C25.3771 80.5952 34.6129 80.5952 43.738 77.9234C43.738 75.9573 43.738 75.1306 43.738 73.7997C39.1604 74.1223 34.5626 74.3139 29.995 74.3139Z" fill="#F2C231"/>
<path d="M54 70.5734C54 71.2993 53.4567 71.9043 52.7424 71.995C37.6311 73.8098 22.3689 73.8098 7.2576 71.995C6.54328 71.9043 6 71.2993 6 70.5734C6 69.4946 6 68.8896 6 67.347C21.9966 67.347 37.9933 67.347 54 67.347C54 68.8796 54 69.4946 54 70.5734ZM12.1572 71.8639C14.0687 72.0353 15.9803 72.1866 17.9019 72.3076V68.0024H12.1572V71.8639Z" fill="#F2C231"/>
<path d="M54 14.9389C38.0034 14.9389 22.0067 14.9389 6 14.9389C6 13.3963 6 12.7914 6 11.7125C6 10.9866 6.54328 10.3817 7.2576 10.2909C22.3689 8.4761 37.6311 8.4761 52.7424 10.2909C53.4567 10.3817 54 10.9866 54 11.7125C54 12.7914 54 13.3963 54 14.9389ZM17.8918 9.97838C15.9803 10.0893 14.0687 10.2405 12.1572 10.4119V14.2029H17.9019V9.97838H17.8918Z" fill="#F2C231"/>
<path d="M54 66.0162H6V16.2698H54V66.0162ZM12.1572 17.1671V65.1188H17.9019V17.1671H12.1572ZM29.995 33.7324C25.9103 33.7324 22.6003 37.0495 22.6003 41.143C22.6003 45.2364 25.9103 48.5535 29.995 48.5535C34.0796 48.5535 37.3896 45.2364 37.3896 41.143C37.3896 37.0495 34.0796 33.7324 29.995 33.7324Z" fill="#F2C231"/>
</g>
<defs>
<clipPath id="clip0_470_1273">
<rect width="48" height="71" fill="white" transform="translate(6 8.92981)"/>
</clipPath>
</defs>
</svg>
