<svg width="95" height="98" viewBox="0 0 95 98" fill="none" xmlns="http://www.w3.org/2000/svg">
<g clip-path="url(#clip0_470_144)">
<path fill-rule="evenodd" clip-rule="evenodd" d="M65.0069 18.9297C81.5711 18.9297 95 32.3655 95 48.9366C95 65.5008 81.5711 78.9297 65.0069 78.9297C48.4289 78.9297 35 65.5008 35 48.9366C35.0069 32.3655 48.4289 18.9297 65.0069 18.9297Z" fill="#144E5E"/>
<path fill-rule="evenodd" clip-rule="evenodd" d="M0.233964 70.7814V80.9297H45.3303V68.9458L0.233964 70.7814ZM47.4861 20.481C47.2067 40.1282 48.077 61.2824 47.7975 80.9217C52.8677 80.9217 57.9299 80.9217 63 80.9217C63 64.8255 63 48.7294 63 32.6332C59.391 27.7194 53.5064 22.6052 47.4861 20.481ZM0.233964 31.3026C0.345747 34.9098 -0.0933998 38.6372 0.018383 42.2444C10.9012 33.8276 24.9699 28.3928 45.3303 31.3026C45.3303 27.4068 45.3303 23.527 45.3303 19.6473C32.0761 15.9279 17.5603 17.5792 0.233964 31.3026ZM0.233964 44.8095C0.233964 48.2644 0.233964 51.7033 0.233964 55.1422C12.7457 47.8236 27.7645 45.4669 45.3303 48.1362C45.3303 44.0881 45.3303 40.032 45.3303 35.9839C30.9503 33.0581 15.9474 35.7434 0.233964 44.8095ZM0.233964 57.3867C0.233964 61.0019 0.233964 64.6091 0.233964 68.2083C14.8775 64.3927 29.8165 63.7674 45.3303 64.3927C45.3303 60.8576 45.3303 55.7514 45.3303 52.2244C29.042 50.7093 14.103 52.6733 0.233964 57.3867Z" fill="#F2C231"/>
</g>
<defs>
<clipPath id="clip0_470_144">
<rect width="94.96" height="96.88" fill="white" transform="translate(0.0195312 0.560059)"/>
</clipPath>
</defs>
</svg>
