<svg width="93" height="88" viewBox="0 0 93 88" fill="none" xmlns="http://www.w3.org/2000/svg">
<path fill-rule="evenodd" clip-rule="evenodd" d="M61.9931 13.9297C78.5711 13.9297 92 27.3725 92 43.9366C92 60.5008 78.5711 73.9297 61.9931 73.9297C45.4289 73.9297 32 60.5008 32 43.9366C32.0069 27.3725 45.4289 13.9297 61.9931 13.9297Z" fill="#144E5E"/>
<path d="M52.5211 18.6621C52.5211 28.8107 47.1475 40.6847 40.5179 40.6847C33.8884 40.6847 41.455 26.9775 28.5148 18.6621C20.4424 13.4754 33.8884 3.92969 40.5179 3.92969C47.1475 3.92969 52.5211 8.51344 52.5211 18.6621Z" fill="#F2C231"/>
<path d="M29.1211 68.8371C29.1211 58.6885 34.4946 46.8145 41.1242 46.8145C47.7538 46.8145 40.1871 60.5217 53.1273 68.8371C61.1997 74.0238 47.7538 83.5695 41.1242 83.5695C34.4961 83.5695 29.1211 78.9873 29.1211 68.8371Z" fill="#F2C231"/>
<path d="M15.7324 32.05C25.881 32.05 37.7551 37.4236 37.7551 44.0532C37.7551 50.6827 24.0478 43.1161 15.7324 56.0563C10.5457 64.1287 1 50.6827 1 44.0532C1.00152 37.4236 5.58375 32.05 15.7324 32.05Z" fill="#F2C231"/>
<path d="M65.9074 55.451C55.7588 55.451 43.8848 50.0775 43.8848 43.4479C43.8848 36.8183 57.592 44.385 65.9074 31.4448C71.0941 23.3723 80.6398 36.8183 80.6398 43.4479C80.6398 50.0759 76.0576 55.451 65.9074 55.451Z" fill="#F2C231"/>
<path d="M40.9339 53.6066C46.2822 53.6066 50.6178 49.2709 50.6178 43.9227C50.6178 38.5744 46.2822 34.2388 40.9339 34.2388C35.5856 34.2388 31.25 38.5744 31.25 43.9227C31.25 49.2709 35.5856 53.6066 40.9339 53.6066Z" fill="#F2C231"/>
</svg>
