<svg width="72" height="60" viewBox="0 0 72 60" fill="none" xmlns="http://www.w3.org/2000/svg">
<g clip-path="url(#clip0_470_1255)">
<path d="M69.9575 55.8725L52.9453 56.7424V0.754883L69.9575 2.99672V55.8725Z" fill="#144E5E"/>
<path d="M50 2.75488H21V16.7549H50V2.75488Z" fill="#F2C231"/>
<path d="M50 44.7549H21V56.7549H50V44.7549Z" fill="#F2C231"/>
<path d="M50 29.7549H21V42.7549H50V29.7549Z" fill="#F2C231"/>
<path d="M50 18.7549H21V27.7549H50V18.7549Z" fill="#F2C231"/>
<path d="M67 29.7549L53 28.6238V2.75488L67 4.60135V29.7549Z" fill="#F2C231"/>
<path d="M67 56.1038L53 56.7549V29.7549L67 30.7683V56.1038Z" fill="#F2C231"/>
<path d="M4.05664 28.7779L18.1481 27.6979V2.99683L4.05664 4.75994V28.7779Z" fill="#F2C231"/>
<path d="M4.46875 54.5531L18.148 55.1719V29.5076L4.46875 30.4709V54.5531Z" fill="#F2C231"/>
<path d="M4.46875 54.5531L5.09294 54.5764V30.897L18.148 30.0388V29.5076L4.46875 30.4709V54.5531Z" fill="#F2C231"/>
<path d="M4.05664 28.7779L4.99293 28.7429V5.09271L18.1481 3.43468V2.99683L4.05664 4.75994V28.7779Z" fill="#F2C231"/>
</g>
<defs>
<clipPath id="clip0_470_1255">
<rect width="72" height="59" fill="white" transform="translate(0 0.754883)"/>
</clipPath>
</defs>
</svg>
