<svg width="101" height="88" viewBox="0 0 101 88" fill="none" xmlns="http://www.w3.org/2000/svg">
<g clip-path="url(#clip0_482_5733)">
<path fill-rule="evenodd" clip-rule="evenodd" d="M70 13.9297C86.5603 13.9297 100 27.3725 100 43.9366C100 60.5008 86.5603 73.9297 70 73.9297C53.4327 73.9227 40 60.5008 40 43.9366C40 27.3586 53.4327 13.9297 70 13.9297Z" fill="#144E5E"/>
<path d="M32.1398 6.28809C32.1398 6.28809 30.6961 7.02473 29.2359 8.12066C28.5141 8.66699 27.7758 9.3052 27.1688 10.0664C26.5617 10.8277 26.0203 11.7727 26.1023 12.9408C26.1844 14.3255 27.1359 15.3657 28.0875 15.9596C29.0555 16.5551 30.0891 16.9029 31.057 17.2442C32.025 17.5854 32.9109 17.9218 33.4195 18.245C33.9117 18.5682 33.9609 18.6535 33.9773 18.9176C33.9773 18.9176 33.9117 19.167 33.5672 19.5493C33.2227 19.9102 32.6484 20.3532 32.0578 20.7305C30.8602 21.4688 29.6297 21.9774 29.6297 21.9774L30.7453 24.7008C30.7453 24.7008 32.1727 24.1266 33.6164 23.2079C34.3383 22.7649 35.093 22.2235 35.7164 21.5508C36.3563 20.8618 36.9305 19.9758 36.8977 18.8389C36.8648 17.4509 35.9297 16.3681 34.9945 15.7643C34.043 15.1606 33.0094 14.8128 32.0414 14.4715C31.0734 14.1286 30.1711 13.7923 29.6461 13.4625C29.1211 13.1328 29.0391 13.0064 29.0227 12.7439C29.0227 12.6767 29.1047 12.3486 29.4656 11.8941C29.8266 11.4396 30.4008 10.9196 31.0078 10.4635C32.2219 9.54965 33.4852 8.89668 33.4852 8.89668L32.1398 6.28809ZM13.7648 9.24121C13.7648 9.24121 12.3211 9.97785 10.8609 11.0738C10.1391 11.6201 9.40078 12.2583 8.79375 13.0196C8.18672 13.7808 7.64531 14.7258 7.72734 15.8939C7.80937 17.2786 8.76094 18.3188 9.7125 18.9127C10.6805 19.5 11.7141 19.861 12.682 20.1891C13.65 20.5336 14.5359 20.8618 15.0445 21.1899C15.5367 21.518 15.5859 21.6 15.6023 21.8625V21.8789C15.6023 21.8789 15.5367 22.125 15.1922 22.5024C14.8477 22.8633 14.2734 23.3063 13.6828 23.6836C12.4852 24.4219 11.2547 24.9305 11.2547 24.9305L12.3703 27.6539C12.3703 27.6539 13.7977 27.0797 15.2414 26.161C15.9633 25.718 16.718 25.1766 17.3414 24.5039C17.9812 23.8149 18.5555 22.9289 18.5227 21.7969C18.4898 20.4024 17.5547 19.3261 16.6195 18.7224C15.668 18.1186 14.6344 17.7708 13.6664 17.4296C12.6984 17.0867 11.7961 16.7504 11.2711 16.4206C10.7461 16.0908 10.6641 15.9645 10.6477 15.702C10.6477 15.6347 10.7297 15.3066 11.0906 14.8521C11.4516 14.3977 12.0258 13.8776 12.6328 13.4215C13.8469 12.5077 15.1102 11.8547 15.1102 11.8547L13.7648 9.24121ZM49.5305 9.24121C49.5305 9.24121 48.0867 9.97785 46.6266 11.0738C45.9047 11.6201 45.1664 12.2583 44.5594 13.0196C43.9523 13.7808 43.4109 14.7258 43.493 15.8939C43.575 17.2786 44.5266 18.3188 45.4781 18.9127C46.4461 19.5 47.4797 19.861 48.4477 20.1891C49.4156 20.5336 50.3016 20.8618 50.8102 21.1899C51.3023 21.518 51.3516 21.6 51.368 21.8625V21.8789C51.368 21.8789 51.3023 22.125 50.9578 22.5024C50.6133 22.8633 50.0391 23.3063 49.4484 23.6836C48.2508 24.4219 47.0203 24.9305 47.0203 24.9305L48.1359 27.6539C48.1359 27.6539 49.5633 27.0797 51.007 26.161C51.7289 25.718 52.4836 25.1766 53.107 24.5039C53.7469 23.8149 54.3211 22.9289 54.2883 21.7969C54.2555 20.4024 53.3203 19.3261 52.3852 18.7224C51.4336 18.1186 50.4 17.7708 49.432 17.4296C48.4641 17.0867 47.5617 16.7504 47.0367 16.4206C46.5117 16.0908 46.4297 15.9645 46.4133 15.702C46.4133 15.6347 46.4953 15.3066 46.8563 14.8521C47.2172 14.3977 47.7914 13.8776 48.3984 13.4215C49.6125 12.5077 50.8758 11.8547 50.8758 11.8547L49.5305 9.24121ZM0 30.7383V33.6586H71.8594V30.7383H0ZM0.247734 36.6118C1.17141 46.1602 10.9266 59.9414 30.1875 59.9414C49.4484 59.9414 59.2102 46.1602 60.1289 36.6118H0.247734ZM12.518 58.5305L9.95859 70.4743C11.1234 70.5891 12.2391 70.9664 13.207 71.5243L15.668 60.0563C14.5688 59.5969 13.5188 59.0883 12.518 58.5305ZM47.857 58.5305C46.8563 59.0883 45.8063 59.5969 44.707 60.0563L49.7438 83.5336C50.5641 83.5008 51.9422 83.4516 52.3688 83.3039C52.6641 83.2055 52.7953 83.1071 52.8609 83.025C52.9102 82.943 52.9758 82.8118 52.9922 82.5L47.857 58.5305ZM9.1875 73.3618C6.34922 73.3618 4.09336 75.6258 4.09336 78.4641C4.09336 81.3024 6.34922 83.5664 9.1875 83.5664C12.0258 83.5664 14.2898 81.3024 14.2898 78.4641C14.2898 75.6258 12.0258 73.3618 9.1875 73.3618ZM17.0133 76.6758C17.1445 77.25 17.2102 77.8571 17.2102 78.4641C17.2102 78.8414 17.1773 79.2188 17.1281 79.5961H45.9047L45.2812 76.6758H17.0133Z" fill="#F2C231"/>
</g>
<defs>
<clipPath id="clip0_482_5733">
<rect width="100" height="86.49" fill="white" transform="translate(0.5 0.754883)"/>
</clipPath>
</defs>
</svg>
