<svg width="70" height="71" viewBox="0 0 70 71" fill="none" xmlns="http://www.w3.org/2000/svg">
<g filter="url(#filter0_d_262_22145)">
<path d="M28.4455 7.84122C24.401 8.81974 20.6042 10.629 17.2966 13.1539C13.9889 15.6789 11.2427 18.8644 9.23257 22.5079" stroke="#144E5E" stroke-width="6" stroke-linecap="round"/>
</g>
<circle opacity="0.1" cx="35.4998" cy="36.9998" r="30" stroke="#144E5E" stroke-width="6" stroke-linecap="round"/>
<path d="M26.0367 41.4766V43.7998H18.2415V41.4766H20.9679V35.659C20.8527 35.8126 20.6735 35.9726 20.4303 36.139C20.1871 36.2926 19.9119 36.4398 19.6047 36.5806C19.2975 36.7214 18.9903 36.8366 18.6831 36.9262C18.3759 37.0158 18.1007 37.0606 17.8575 37.0606V34.6606C18.0879 34.6606 18.3631 34.5902 18.6831 34.4494C19.0159 34.2958 19.3423 34.1166 19.6623 33.9118C19.9951 33.707 20.2767 33.5086 20.5071 33.3166C20.7503 33.1118 20.9039 32.9518 20.9679 32.8366H23.5983V41.4766H26.0367ZM37.3482 38.1742C37.3482 39.3006 37.1306 40.3054 36.6954 41.1886C36.273 42.059 35.6842 42.7438 34.929 43.243C34.1866 43.7422 33.3418 43.9918 32.3946 43.9918C31.4474 43.9918 30.5962 43.7422 29.841 43.243C29.0986 42.7438 28.5098 42.059 28.0746 41.1886C27.6522 40.3054 27.441 39.3006 27.441 38.1742C27.441 37.0478 27.6522 36.0494 28.0746 35.179C28.5098 34.2958 29.0986 33.6046 29.841 33.1054C30.5962 32.5934 31.4474 32.3374 32.3946 32.3374C33.3418 32.3374 34.1866 32.5934 34.929 33.1054C35.6842 33.6046 36.273 34.2958 36.6954 35.179C37.1306 36.0494 37.3482 37.0478 37.3482 38.1742ZM34.7562 38.1742C34.7562 37.483 34.6538 36.8814 34.449 36.3694C34.257 35.8446 33.9818 35.435 33.6234 35.1406C33.265 34.8462 32.8554 34.699 32.3946 34.699C31.921 34.699 31.505 34.8462 31.1466 35.1406C30.7882 35.435 30.5066 35.8446 30.3018 36.3694C30.1098 36.8814 30.0138 37.483 30.0138 38.1742C30.0138 38.8654 30.1098 39.467 30.3018 39.979C30.5066 40.491 30.7882 40.8942 31.1466 41.1886C31.505 41.483 31.921 41.6302 32.3946 41.6302C32.8554 41.6302 33.2586 41.483 33.6042 41.1886C33.9626 40.8942 34.2442 40.491 34.449 39.979C34.6538 39.4542 34.7562 38.8526 34.7562 38.1742ZM42.1339 35.7934C41.5451 35.7934 41.0139 35.6654 40.5403 35.4094C40.0667 35.1406 39.6827 34.7886 39.3883 34.3534C39.1067 33.9054 38.9659 33.4126 38.9659 32.875C38.9659 32.3374 39.1067 31.851 39.3883 31.4158C39.6827 30.9678 40.0667 30.6158 40.5403 30.3598C41.0139 30.1038 41.5451 29.9758 42.1339 29.9758C42.7227 29.9758 43.2539 30.1038 43.7275 30.3598C44.2139 30.6158 44.5979 30.9678 44.8795 31.4158C45.1611 31.851 45.3019 32.3374 45.3019 32.875C45.3019 33.4126 45.1611 33.9054 44.8795 34.3534C44.5979 34.7886 44.2139 35.1406 43.7275 35.4094C43.2539 35.6654 42.7227 35.7934 42.1339 35.7934ZM42.1339 34.507C42.3899 34.507 42.6203 34.4302 42.8251 34.2766C43.0299 34.123 43.1899 33.9246 43.3051 33.6814C43.4331 33.4382 43.4971 33.1758 43.4971 32.8942C43.4971 32.587 43.4331 32.3118 43.3051 32.0686C43.1771 31.8254 43.0107 31.6334 42.8059 31.4926C42.6011 31.339 42.3771 31.2622 42.1339 31.2622C41.8779 31.2622 41.6475 31.339 41.4427 31.4926C41.2379 31.6334 41.0715 31.8254 40.9435 32.0686C40.8283 32.3118 40.7707 32.5806 40.7707 32.875C40.7707 33.1694 40.8347 33.4446 40.9627 33.7006C41.0907 33.9438 41.2571 34.1422 41.4619 34.2958C41.6667 34.4366 41.8907 34.507 42.1339 34.507ZM49.5451 43.9918C48.9563 43.9918 48.4251 43.8638 47.9515 43.6078C47.4779 43.3518 47.0939 43.0062 46.7995 42.571C46.5179 42.123 46.3771 41.6302 46.3771 41.0926C46.3771 40.5422 46.5179 40.0494 46.7995 39.6142C47.0939 39.179 47.4779 38.8334 47.9515 38.5774C48.4251 38.3086 48.9563 38.1742 49.5451 38.1742C50.1339 38.1742 50.6651 38.3086 51.1387 38.5774C51.6251 38.8334 52.0091 39.179 52.2907 39.6142C52.5723 40.0494 52.7131 40.5358 52.7131 41.0734C52.7131 41.611 52.5723 42.1038 52.2907 42.5518C52.0091 42.987 51.6251 43.339 51.1387 43.6078C50.6651 43.8638 50.1339 43.9918 49.5451 43.9918ZM49.5451 42.7054C49.8011 42.7054 50.0315 42.6286 50.2363 42.475C50.4411 42.3214 50.6011 42.123 50.7163 41.8798C50.8443 41.6366 50.9083 41.3742 50.9083 41.0926C50.9083 40.7854 50.8443 40.5102 50.7163 40.267C50.6011 40.0238 50.4347 39.8318 50.2171 39.691C50.0123 39.5374 49.7883 39.4606 49.5451 39.4606C49.3019 39.4606 49.0715 39.5374 48.8539 39.691C48.6491 39.8318 48.4827 40.0302 48.3547 40.2862C48.2395 40.5294 48.1819 40.7918 48.1819 41.0734C48.1819 41.3806 48.2459 41.6558 48.3739 41.899C48.5019 42.1422 48.6683 42.3406 48.8731 42.4942C49.0779 42.635 49.3019 42.7054 49.5451 42.7054ZM40.0603 42.8974L45.4555 36.5806L50.4475 30.0142L51.6187 31.051L46.3579 37.2718L41.2123 43.9342L40.0603 42.8974Z" fill="#144E5E"/>
<defs>
<filter id="filter0_d_262_22145" x="0.232025" y="0.840515" width="37.2142" height="32.6679" filterUnits="userSpaceOnUse" color-interpolation-filters="sRGB">
<feFlood flood-opacity="0" result="BackgroundImageFix"/>
<feColorMatrix in="SourceAlpha" type="matrix" values="0 0 0 0 0 0 0 0 0 0 0 0 0 0 0 0 0 0 127 0" result="hardAlpha"/>
<feOffset dy="2"/>
<feGaussianBlur stdDeviation="3"/>
<feColorMatrix type="matrix" values="0 0 0 0 0.505882 0 0 0 0 0.831373 0 0 0 0 0.996078 0 0 0 0.2 0"/>
<feBlend mode="normal" in2="BackgroundImageFix" result="effect1_dropShadow_262_22145"/>
<feBlend mode="normal" in="SourceGraphic" in2="effect1_dropShadow_262_22145" result="shape"/>
</filter>
</defs>
</svg>
