<svg width="18" height="10" viewBox="0 0 18 10" fill="none" xmlns="http://www.w3.org/2000/svg">
<path d="M1.50423 9.37918L9.00123 2.07118L16.4982 9.37918C16.6322 9.51001 16.812 9.58326 16.9992 9.58326C17.1865 9.58326 17.3663 9.51001 17.5002 9.37918C17.5651 9.31563 17.6166 9.23978 17.6518 9.15607C17.687 9.07236 17.7051 8.98248 17.7051 8.89168C17.7051 8.80088 17.687 8.71099 17.6518 8.62728C17.6166 8.54357 17.5651 8.46772 17.5002 8.40418L9.52473 0.628176C9.38467 0.491655 9.19682 0.415249 9.00123 0.415249C8.80564 0.415249 8.61779 0.491655 8.47773 0.628176L0.502228 8.40268C0.436913 8.46627 0.384998 8.5423 0.349552 8.62629C0.314106 8.71028 0.295843 8.80051 0.295843 8.89168C0.295843 8.98284 0.314106 9.07307 0.349552 9.15706C0.384998 9.24105 0.436913 9.31708 0.502228 9.38068C0.636175 9.51151 0.815989 9.58475 1.00323 9.58475C1.19047 9.58475 1.37028 9.51151 1.50423 9.38068V9.37918Z" fill="black"/>
</svg>
