<svg width="101" height="88" viewBox="0 0 101 88" fill="none" xmlns="http://www.w3.org/2000/svg">
<g clip-path="url(#clip0_456_1701)">
<path fill-rule="evenodd" clip-rule="evenodd" d="M70 13.9298C86.5603 13.9298 100 27.3726 100 43.9367C100 60.5009 86.5603 73.9298 70 73.9298C53.4327 73.9229 40 60.5009 40 43.9367C40 27.3587 53.4327 13.9298 70 13.9298Z" fill="#144E5E"/>
<path fill-rule="evenodd" clip-rule="evenodd" d="M74.7666 39.0373L39.3466 15.3873C38.4466 14.7773 37.1366 14.7773 36.2566 15.3873L23.6166 23.8073V20.3973C23.6166 18.3773 21.4966 16.7573 18.8966 16.7573C16.2866 16.7573 14.1766 18.3873 14.1766 20.3973V30.1173L0.816589 39.0273C-0.163411 39.6973 -0.283411 40.8473 0.576589 41.6073C1.43659 42.3573 2.92659 42.4273 3.90659 41.7873L37.7766 19.1673L71.6466 41.7973C72.0966 42.0873 72.6466 42.2273 73.1966 42.2273C73.8666 42.2273 74.5066 42.0173 74.9766 41.6173C75.8466 40.8573 75.7466 39.6973 74.7666 39.0373ZM0.146589 50.3973C3.96659 57.7073 7.80659 65.0073 11.6466 72.3173C19.8166 65.7173 38.5666 70.2773 52.0266 69.2773C60.6266 64.5773 69.2466 59.8573 77.8666 55.1573C79.8066 50.3173 78.0066 47.5573 71.5566 47.3373C65.4866 50.7473 59.4066 54.1573 53.3166 57.5473C47.1666 56.6073 41.0166 55.6673 34.8566 54.7273C26.1166 42.9373 46.0066 52.4173 51.5866 51.2573C55.1866 49.0673 55.7166 46.6373 51.8066 43.8673C42.4666 41.9073 33.1366 39.9673 23.7966 38.0073C15.9166 42.1273 8.01659 46.2673 0.146589 50.3973Z" fill="#F2C231"/>
</g>
<defs>
<clipPath id="clip0_456_1701">
<rect width="100" height="86.49" fill="white" transform="translate(0.5 0.755005)"/>
</clipPath>
</defs>
</svg>
