<svg width="101" height="88" viewBox="0 0 101 88" fill="none" xmlns="http://www.w3.org/2000/svg">
<g clip-path="url(#clip0_482_1856)">
<path fill-rule="evenodd" clip-rule="evenodd" d="M70 13.9297C86.5603 13.9297 100 27.3725 100 43.9366C100 60.5008 86.5603 73.9297 70 73.9297C53.4327 73.9227 40 60.5008 40 43.9366C40 27.3586 53.4327 13.9297 70 13.9297Z" fill="#144E5E"/>
<path fill-rule="evenodd" clip-rule="evenodd" d="M0 40.3622H78.6V72.0022H50V60.6322C50 54.4222 45.18 49.3322 39.3 49.3322C33.42 49.3322 28.62 54.4222 28.62 60.6322V71.9922H0V40.3622ZM78.6 38.2422H0C48.41 8.5422 30.35 8.4422 78.6 38.2422ZM12.3 56.9522H4.8V64.9422H12.3V56.9522ZM4.82 55.3822H12.3V47.4322C8.21 47.8222 4.96 51.2322 4.82 55.3822ZM13.85 55.3822H21.33C21.19 51.2322 17.94 47.8222 13.85 47.4322V55.3822ZM21.33 56.9522H13.85V64.9422H21.33V56.9522ZM64.49 56.9522H57.01V64.9422H64.49V56.9522ZM57.01 55.3822H64.49V47.4322C60.4 47.8222 57.15 51.2322 57.01 55.3822ZM66.06 55.3822H73.52C73.38 51.2322 70.13 47.8222 66.06 47.4322V55.3822ZM73.54 56.9522H66.06V64.9422H73.54V56.9522Z" fill="#F2C231"/>
</g>
<defs>
<clipPath id="clip0_482_1856">
<rect width="100" height="86.49" fill="white" transform="translate(0.5 0.754883)"/>
</clipPath>
</defs>
</svg>
