<svg width="101" height="88" viewBox="0 0 101 88" fill="none" xmlns="http://www.w3.org/2000/svg">
<g clip-path="url(#clip0_482_1895)">
<path fill-rule="evenodd" clip-rule="evenodd" d="M70 13.9297C86.5603 13.9297 100 27.3725 100 43.9366C100 60.5008 86.5603 73.9297 70 73.9297C53.4327 73.9227 40 60.5008 40 43.9366C40 27.3586 53.4327 13.9297 70 13.9297Z" fill="#144E5E"/>
<path d="M90.5109 41.2188H90.2292C90.2837 41.0917 90.32 40.9736 90.32 40.8284V26.5095C90.32 25.9193 89.8747 25.5652 89.4112 25.5652C88.8568 25.5652 88.5024 25.9193 88.5024 26.5095V39.766H81.9678V34.3908C81.9678 33.9095 81.5952 33.4283 81.1499 33.4283H76.4149C75.8787 33.4283 75.4151 33.9095 75.4151 34.3908V39.766H68.9715V26.9907C68.9715 26.3824 68.508 26.0283 68.0627 26.0283C67.5083 26.0283 67.1538 26.3824 67.1538 26.9907V40.8284C67.1538 40.9736 67.172 41.0917 67.2265 41.2188H47.7138C43.7059 32.7382 35.0719 26.8454 25.0657 26.8454C11.215 26.8454 0 38.0499 0 51.8876C0 65.7071 11.215 76.9297 25.0657 76.9297C36.1716 76.9297 45.5781 69.6931 48.8681 59.6962H51.6309C51.8945 62.5201 54.2484 64.7446 57.1476 64.7446C60.0649 64.7446 62.4188 62.5201 62.6824 59.6962H65.6361C65.8996 62.5201 68.2717 64.7446 71.1709 64.7446C74.0701 64.7446 76.424 62.5201 76.7057 59.6962H79.7685C80.0502 62.5201 82.4041 64.7446 85.3033 64.7446C88.2206 64.7446 90.5927 62.5019 90.8381 59.6599C94.2735 59.4602 97 56.6545 97 53.186V47.729C97.0091 44.1334 94.0917 41.2188 90.5109 41.2188ZM80.2411 41.2188H77.1601C77.2146 41.0917 77.2328 40.9736 77.2328 40.8284V35.3532H80.1502V40.8284C80.1502 40.9736 80.1865 41.0917 80.2411 41.2188ZM8.1159 51.8876C8.1159 47.9197 11.3423 44.6964 15.3139 44.6964C19.2855 44.6964 22.5028 47.9197 22.5028 51.8876C22.5028 55.8555 19.2764 59.0697 15.3139 59.0697C11.3332 59.0788 8.1159 55.8555 8.1159 51.8876Z" fill="#F2C231"/>
<path fill-rule="evenodd" clip-rule="evenodd" d="M78.698 13.8511L92.8549 28.0081V37.9344C92.8549 38.8731 92.482 39.7733 91.8183 40.4371C91.1546 41.1008 90.2543 41.4737 89.3157 41.4737H68.0803C67.1416 41.4737 66.2414 41.1008 65.5776 40.4371C64.9139 39.7733 64.541 38.8731 64.541 37.9344V28.0081L78.698 13.8511ZM90.4954 11.98V20.2383L85.7764 15.5193V11.98C85.7764 11.6672 85.9007 11.3671 86.122 11.1458C86.3432 10.9246 86.6433 10.8003 86.9562 10.8003H89.3157C89.6286 10.8003 89.9286 10.9246 90.1499 11.1458C90.3711 11.3671 90.4954 11.6672 90.4954 11.98Z" fill="#F2C231"/>
<path fill-rule="evenodd" clip-rule="evenodd" d="M77.0295 9.62051C77.472 9.17818 78.072 8.92969 78.6977 8.92969C79.3233 8.92969 79.9234 9.17818 80.3658 9.62051L96.0494 25.3017C96.2709 25.5232 96.3953 25.8237 96.3953 26.137C96.3953 26.4502 96.2709 26.7507 96.0494 26.9722C95.8278 27.1937 95.5274 27.3182 95.2141 27.3182C94.9008 27.3182 94.6004 27.1937 94.3788 26.9722L78.6977 11.2887L63.0165 26.9722C62.795 27.1937 62.4945 27.3182 62.1812 27.3182C61.868 27.3182 61.5675 27.1937 61.346 26.9722C61.1245 26.7507 61 26.4502 61 26.137C61 25.8237 61.1245 25.5232 61.346 25.3017L77.0295 9.62051Z" fill="#F2C231"/>
</g>
<defs>
<clipPath id="clip0_482_1895">
<rect width="100" height="86.49" fill="white" transform="translate(0.5 0.754883)"/>
</clipPath>
</defs>
</svg>
