<svg width="117" height="88" viewBox="0 0 117 88" fill="none" xmlns="http://www.w3.org/2000/svg">
<path fill-rule="evenodd" clip-rule="evenodd" d="M85.9931 13.9297C102.557 13.9297 116 27.3586 116 43.9228C116 60.5008 102.557 73.9297 85.9931 73.9297C69.4289 73.9227 56 60.5008 56 43.9228C56 27.3586 69.4289 13.9297 85.9931 13.9297Z" fill="#144E5E"/>
<path fill-rule="evenodd" clip-rule="evenodd" d="M14.48 14.9997L14.69 36.3897L43.37 29.2997V4.94969L14.48 14.9997ZM13.45 37.0997L5.65 38.8997L5 68.8497L43.38 83.5297V29.7397L13.45 37.1297V37.0997ZM44.56 83.5097L58.84 77.1597V51.1597L75.06 51.0197L74.86 71.4497L83.62 68.3897V38.5297L74.26 36.5497L74.04 36.4897L44.56 29.5397V83.5097ZM74.02 36.0797L73.28 14.9997L44.56 4.92969V29.1197L74.02 36.0797Z" fill="#F2C231"/>
</svg>
